<svg id="Layer_1" data-name="Layer 1" xmlns="http://www.w3.org/2000/svg" xmlns:xlink="http://www.w3.org/1999/xlink" viewBox="0 0 432 576"><defs><style>.cls-1{opacity:0.05;}.cls-2{fill:#040d21;}.cls-3{fill:none;stroke:#000;stroke-linecap:round;stroke-linejoin:round;stroke-width:8px;}.cls-4{fill:#fcce08;}.cls-5{fill:#2d313f;}.cls-6{fill:#feaf06;}.cls-7{fill:#fbd82b;}.cls-8{fill:#ffe278;}.cls-9{fill:#b57817;}.cls-10{fill:#701d1d;}.cls-11,.cls-16,.cls-17{fill:#fff;}.cls-12{fill:#f70000;}.cls-13,.cls-14{opacity:0.2;}.cls-13{fill:url(#linear-gradient);}.cls-14{fill:url(#linear-gradient-2);}.cls-15{fill:#0062b2;}.cls-16{opacity:0.6;}.cls-17{opacity:0.7;}.cls-18{fill:#f2f2f2;}.cls-19{fill:#c9c9c9;}.cls-20{fill:#677077;}.cls-21{fill:#b8b8b8;}.cls-22{fill:#858d92;}.cls-23{fill:#ccc;}.cls-24{fill:#ededed;}.cls-25{fill:#d9d9d9;}.cls-26{fill:#b4b4b4;}.cls-27{fill:url(#radial-gradient);}.cls-28{fill:#2b4bed;}</style><linearGradient id="linear-gradient" x1="238.51" y1="243.76" x2="238.51" y2="194.93" gradientTransform="translate(38.21 -35.37) rotate(9.22)" gradientUnits="userSpaceOnUse"><stop offset="0.36" stop-color="#fff"/><stop offset="0.42" stop-color="#f5f9fc"/><stop offset="0.51" stop-color="#dae8f4"/><stop offset="0.62" stop-color="#aecde6"/><stop offset="0.76" stop-color="#70a7d4"/><stop offset="0.92" stop-color="#2378bd"/><stop offset="0.99" stop-color="#0062b2"/></linearGradient><linearGradient id="linear-gradient-2" x1="179.38" y1="243.76" x2="179.38" y2="194.93" gradientTransform="translate(348.05 -8.33) rotate(75.81)" xlink:href="#linear-gradient"/><radialGradient id="radial-gradient" cx="209.9" cy="174.25" r="39.53" gradientTransform="translate(-113.61 384.15) rotate(-90) scale(1 1.86)" gradientUnits="userSpaceOnUse"><stop offset="0" stop-color="#ff8c1f"/><stop offset="1" stop-color="#feaf06"/></radialGradient></defs><g class="cls-1"><path class="cls-2" d="M222.07,234.73v15.76H225a2.24,2.24,0,0,1,1.48.4,1.37,1.37,0,0,1,.44,1.05,1.33,1.33,0,0,1-.44,1,2.18,2.18,0,0,1-1.48.4h-8.7a2.17,2.17,0,0,1-1.48-.4,1.31,1.31,0,0,1-.45-1,1.34,1.34,0,0,1,.45-1,2.22,2.22,0,0,1,1.48-.4h2.91v-12l-2.57.67a3.68,3.68,0,0,1-.93.17,1.24,1.24,0,0,1-.95-.43,1.51,1.51,0,0,1-.4-1.07,1.36,1.36,0,0,1,.29-.91,2.68,2.68,0,0,1,1.24-.58Z"/><path class="cls-2" d="M244.16,242.68v3.16a9.84,9.84,0,0,1-1.63,5.38,5.17,5.17,0,0,1-4.64,2.58A5.36,5.36,0,0,1,235,253a7.27,7.27,0,0,1-2.28-2.82,9.29,9.29,0,0,1-1.07-4.37v-3.16a9.92,9.92,0,0,1,1.61-5.37,5.16,5.16,0,0,1,4.64-2.58,5.35,5.35,0,0,1,2.93.76,7.25,7.25,0,0,1,2.29,2.81A9.32,9.32,0,0,1,244.16,242.68Zm-2.9,0a6.69,6.69,0,0,0-1.3-4.1,2.49,2.49,0,0,0-2.1-1,2.55,2.55,0,0,0-2.13,1.07,6.29,6.29,0,0,0-1.25,4v3.16A6.63,6.63,0,0,0,235.8,250a2.46,2.46,0,0,0,2.09,1,2.57,2.57,0,0,0,2.12-1.07,6.32,6.32,0,0,0,1.25-4Z"/><path class="cls-2" d="M256.61,234.73v15.76h2.91a2.24,2.24,0,0,1,1.48.4,1.37,1.37,0,0,1,.44,1.05,1.33,1.33,0,0,1-.44,1,2.18,2.18,0,0,1-1.48.4h-8.7a2.17,2.17,0,0,1-1.48-.4,1.31,1.31,0,0,1-.45-1,1.34,1.34,0,0,1,.45-1,2.22,2.22,0,0,1,1.48-.4h2.91v-12l-2.57.67a3.68,3.68,0,0,1-.93.17,1.24,1.24,0,0,1-.95-.43,1.51,1.51,0,0,1-.4-1.07,1.36,1.36,0,0,1,.29-.91,2.68,2.68,0,0,1,1.24-.58Z"/><path class="cls-2" d="M278.7,242.68v3.16a9.84,9.84,0,0,1-1.63,5.38,5.17,5.17,0,0,1-4.64,2.58,5.36,5.36,0,0,1-2.94-.77,7.18,7.18,0,0,1-2.28-2.82,9.3,9.3,0,0,1-1.08-4.37v-3.16a9.93,9.93,0,0,1,1.62-5.37,5.16,5.16,0,0,1,4.64-2.58,5.35,5.35,0,0,1,2.93.76,7.25,7.25,0,0,1,2.29,2.81A9.32,9.32,0,0,1,278.7,242.68Zm-2.9,0a6.63,6.63,0,0,0-1.31-4.1,2.46,2.46,0,0,0-2.09-1,2.55,2.55,0,0,0-2.13,1.07,6.29,6.29,0,0,0-1.25,4v3.16a6.57,6.57,0,0,0,1.32,4.11,2.46,2.46,0,0,0,2.09,1,2.57,2.57,0,0,0,2.12-1.07,6.32,6.32,0,0,0,1.25-4Z"/><path class="cls-2" d="M226.89,293.07v3.17a9.89,9.89,0,0,1-1.63,5.38,5.18,5.18,0,0,1-4.64,2.57,5.36,5.36,0,0,1-2.94-.77,7.27,7.27,0,0,1-2.28-2.82,9.25,9.25,0,0,1-1.07-4.36v-3.17a9.94,9.94,0,0,1,1.61-5.37,5.16,5.16,0,0,1,4.64-2.58,5.35,5.35,0,0,1,2.93.76,7.29,7.29,0,0,1,2.29,2.82A9.28,9.28,0,0,1,226.89,293.07Zm-2.9,0a6.69,6.69,0,0,0-1.3-4.1,2.52,2.52,0,0,0-2.1-1,2.58,2.58,0,0,0-2.13,1.07,6.31,6.31,0,0,0-1.25,4v3.17a6.6,6.6,0,0,0,1.32,4.1,2.44,2.44,0,0,0,2.09,1,2.57,2.57,0,0,0,2.12-1.07,6.31,6.31,0,0,0,1.25-4Z"/><path class="cls-2" d="M239.34,285.12v15.77h2.91a2.18,2.18,0,0,1,1.48.4,1.34,1.34,0,0,1,.44,1,1.35,1.35,0,0,1-.44,1,2.24,2.24,0,0,1-1.48.4h-8.7a2.22,2.22,0,0,1-1.48-.4,1.35,1.35,0,0,1-.45-1.05,1.31,1.31,0,0,1,.45-1,2.17,2.17,0,0,1,1.48-.4h2.91v-12l-2.57.68a4.2,4.2,0,0,1-.93.17,1.25,1.25,0,0,1-1-.44,1.51,1.51,0,0,1-.4-1.07,1.33,1.33,0,0,1,.29-.9,2.67,2.67,0,0,1,1.24-.59Z"/><path class="cls-2" d="M256.61,285.12v15.77h2.91a2.18,2.18,0,0,1,1.48.4,1.34,1.34,0,0,1,.44,1,1.35,1.35,0,0,1-.44,1,2.24,2.24,0,0,1-1.48.4h-8.7a2.22,2.22,0,0,1-1.48-.4,1.35,1.35,0,0,1-.45-1.05,1.31,1.31,0,0,1,.45-1,2.17,2.17,0,0,1,1.48-.4h2.91v-12l-2.57.68a4.2,4.2,0,0,1-.93.17,1.25,1.25,0,0,1-.95-.44,1.51,1.51,0,0,1-.4-1.07,1.33,1.33,0,0,1,.29-.9,2.67,2.67,0,0,1,1.24-.59Z"/><path class="cls-2" d="M278.7,293.07v3.17a9.89,9.89,0,0,1-1.63,5.38,5.18,5.18,0,0,1-4.64,2.57,5.36,5.36,0,0,1-2.94-.77,7.18,7.18,0,0,1-2.28-2.82,9.26,9.26,0,0,1-1.08-4.36v-3.17a10,10,0,0,1,1.62-5.37,5.16,5.16,0,0,1,4.64-2.58,5.35,5.35,0,0,1,2.93.76,7.29,7.29,0,0,1,2.29,2.82A9.28,9.28,0,0,1,278.7,293.07Zm-2.9,0a6.63,6.63,0,0,0-1.31-4.1,2.49,2.49,0,0,0-2.09-1,2.58,2.58,0,0,0-2.13,1.07,6.31,6.31,0,0,0-1.25,4v3.17a6.54,6.54,0,0,0,1.32,4.1,2.44,2.44,0,0,0,2.09,1,2.57,2.57,0,0,0,2.12-1.07,6.31,6.31,0,0,0,1.25-4Z"/><path class="cls-2" d="M226.89,268v3.17a9.89,9.89,0,0,1-1.63,5.38,5.18,5.18,0,0,1-4.64,2.57,5.36,5.36,0,0,1-2.94-.77,7.27,7.27,0,0,1-2.28-2.82,9.25,9.25,0,0,1-1.07-4.36V268a9.94,9.94,0,0,1,1.61-5.37,5.16,5.16,0,0,1,4.64-2.58,5.35,5.35,0,0,1,2.93.76,7.29,7.29,0,0,1,2.29,2.82A9.28,9.28,0,0,1,226.89,268Zm-2.9,0a6.69,6.69,0,0,0-1.3-4.1,2.52,2.52,0,0,0-2.1-1,2.58,2.58,0,0,0-2.13,1.07,6.31,6.31,0,0,0-1.25,4v3.17a6.6,6.6,0,0,0,1.32,4.1,2.44,2.44,0,0,0,2.09,1,2.57,2.57,0,0,0,2.12-1.07,6.31,6.31,0,0,0,1.25-4Z"/><path class="cls-2" d="M239.34,260.06v15.77h2.91a2.18,2.18,0,0,1,1.48.4,1.34,1.34,0,0,1,.44,1,1.35,1.35,0,0,1-.44,1,2.24,2.24,0,0,1-1.48.4h-8.7a2.22,2.22,0,0,1-1.48-.4,1.35,1.35,0,0,1-.45-1.05,1.31,1.31,0,0,1,.45-1,2.17,2.17,0,0,1,1.48-.4h2.91v-12l-2.57.68a4.2,4.2,0,0,1-.93.17,1.25,1.25,0,0,1-1-.44,1.51,1.51,0,0,1-.4-1.07,1.33,1.33,0,0,1,.29-.9,2.67,2.67,0,0,1,1.24-.59Z"/><path class="cls-2" d="M261.43,268v3.17a9.89,9.89,0,0,1-1.63,5.38,5.18,5.18,0,0,1-4.64,2.57,5.36,5.36,0,0,1-2.94-.77,7.27,7.27,0,0,1-2.28-2.82,9.25,9.25,0,0,1-1.07-4.36V268a9.94,9.94,0,0,1,1.61-5.37,5.16,5.16,0,0,1,4.64-2.58,5.35,5.35,0,0,1,2.93.76,7.29,7.29,0,0,1,2.29,2.82A9.28,9.28,0,0,1,261.43,268Zm-2.9,0a6.69,6.69,0,0,0-1.3-4.1,2.52,2.52,0,0,0-2.1-1A2.58,2.58,0,0,0,253,264a6.31,6.31,0,0,0-1.25,4v3.17a6.6,6.6,0,0,0,1.32,4.1,2.44,2.44,0,0,0,2.09,1,2.57,2.57,0,0,0,2.12-1.07,6.31,6.31,0,0,0,1.25-4Z"/><path class="cls-2" d="M278.7,268v3.17a9.89,9.89,0,0,1-1.63,5.38,5.18,5.18,0,0,1-4.64,2.57,5.36,5.36,0,0,1-2.94-.77,7.18,7.18,0,0,1-2.28-2.82,9.26,9.26,0,0,1-1.08-4.36V268a10,10,0,0,1,1.62-5.37,5.16,5.16,0,0,1,4.64-2.58,5.35,5.35,0,0,1,2.93.76,7.29,7.29,0,0,1,2.29,2.82A9.28,9.28,0,0,1,278.7,268Zm-2.9,0a6.63,6.63,0,0,0-1.31-4.1,2.49,2.49,0,0,0-2.09-1,2.58,2.58,0,0,0-2.13,1.07,6.31,6.31,0,0,0-1.25,4v3.17a6.54,6.54,0,0,0,1.32,4.1,2.44,2.44,0,0,0,2.09,1,2.57,2.57,0,0,0,2.12-1.07,6.31,6.31,0,0,0,1.25-4Z"/><path class="cls-2" d="M292.48,234.73v15.76h2.91a2.22,2.22,0,0,1,1.48.4,1.35,1.35,0,0,1,.45,1.05,1.31,1.31,0,0,1-.45,1,2.17,2.17,0,0,1-1.48.4h-8.7a2.18,2.18,0,0,1-1.48-.4,1.34,1.34,0,0,1-.44-1,1.37,1.37,0,0,1,.44-1,2.24,2.24,0,0,1,1.48-.4h2.91v-12l-2.57.67a3.54,3.54,0,0,1-.93.17,1.26,1.26,0,0,1-1-.43,1.56,1.56,0,0,1-.4-1.07,1.31,1.31,0,0,1,.3-.91,2.68,2.68,0,0,1,1.24-.58Z"/><path class="cls-2" d="M314.57,242.68v3.16a9.91,9.91,0,0,1-1.62,5.38,5.17,5.17,0,0,1-4.64,2.58,5.37,5.37,0,0,1-2.95-.77,7.17,7.17,0,0,1-2.27-2.82,9.3,9.3,0,0,1-1.08-4.37v-3.16a9.93,9.93,0,0,1,1.62-5.37,5.15,5.15,0,0,1,4.63-2.58,5.32,5.32,0,0,1,2.93.76,7.16,7.16,0,0,1,2.29,2.81A9.2,9.2,0,0,1,314.57,242.68Zm-2.89,0a6.69,6.69,0,0,0-1.31-4.1,2.48,2.48,0,0,0-2.09-1,2.57,2.57,0,0,0-2.14,1.07,6.35,6.35,0,0,0-1.25,4v3.16a6.63,6.63,0,0,0,1.32,4.11,2.49,2.49,0,0,0,2.1,1,2.59,2.59,0,0,0,2.12-1.07,6.38,6.38,0,0,0,1.25-4Z"/><path class="cls-2" d="M327,234.73v15.76h2.91a2.22,2.22,0,0,1,1.48.4,1.35,1.35,0,0,1,.45,1.05,1.31,1.31,0,0,1-.45,1,2.17,2.17,0,0,1-1.48.4h-8.7a2.18,2.18,0,0,1-1.48-.4,1.34,1.34,0,0,1-.44-1,1.37,1.37,0,0,1,.44-1,2.24,2.24,0,0,1,1.48-.4h2.91v-12l-2.57.67a3.54,3.54,0,0,1-.93.17,1.22,1.22,0,0,1-.94-.43,1.52,1.52,0,0,1-.41-1.07,1.31,1.31,0,0,1,.3-.91,2.68,2.68,0,0,1,1.24-.58Z"/><path class="cls-2" d="M349.11,242.68v3.16a9.91,9.91,0,0,1-1.62,5.38,5.17,5.17,0,0,1-4.64,2.58,5.37,5.37,0,0,1-3-.77,7.27,7.27,0,0,1-2.28-2.82,9.41,9.41,0,0,1-1.07-4.37v-3.16a9.93,9.93,0,0,1,1.62-5.37,5.15,5.15,0,0,1,4.63-2.58,5.35,5.35,0,0,1,2.93.76A7.16,7.16,0,0,1,348,238.3,9.2,9.2,0,0,1,349.11,242.68Zm-2.89,0a6.69,6.69,0,0,0-1.31-4.1,2.48,2.48,0,0,0-2.09-1,2.57,2.57,0,0,0-2.14,1.07,6.35,6.35,0,0,0-1.25,4v3.16a6.63,6.63,0,0,0,1.32,4.11,2.49,2.49,0,0,0,2.1,1,2.59,2.59,0,0,0,2.12-1.07,6.38,6.38,0,0,0,1.25-4Z"/><path class="cls-2" d="M297.3,293.07v3.17a10,10,0,0,1-1.62,5.38,5.18,5.18,0,0,1-4.64,2.57,5.37,5.37,0,0,1-3-.77,7.17,7.17,0,0,1-2.27-2.82,9.26,9.26,0,0,1-1.08-4.36v-3.17a10,10,0,0,1,1.62-5.37,5.15,5.15,0,0,1,4.63-2.58,5.32,5.32,0,0,1,2.93.76,7.2,7.2,0,0,1,2.29,2.82A9.16,9.16,0,0,1,297.3,293.07Zm-2.89,0a6.69,6.69,0,0,0-1.31-4.1,2.5,2.5,0,0,0-2.09-1,2.6,2.6,0,0,0-2.14,1.07,6.37,6.37,0,0,0-1.25,4v3.17a6.6,6.6,0,0,0,1.32,4.1,2.47,2.47,0,0,0,2.1,1,2.59,2.59,0,0,0,2.12-1.07,6.37,6.37,0,0,0,1.25-4Z"/><path class="cls-2" d="M309.75,285.12v15.77h2.91a2.17,2.17,0,0,1,1.48.4,1.31,1.31,0,0,1,.45,1,1.33,1.33,0,0,1-.45,1,2.22,2.22,0,0,1-1.48.4H304a2.24,2.24,0,0,1-1.48-.4,1.37,1.37,0,0,1-.44-1.05,1.33,1.33,0,0,1,.44-1,2.18,2.18,0,0,1,1.48-.4h2.91v-12l-2.57.68a4,4,0,0,1-.93.17,1.23,1.23,0,0,1-.94-.44,1.52,1.52,0,0,1-.41-1.07,1.29,1.29,0,0,1,.3-.9,2.67,2.67,0,0,1,1.24-.59Z"/><path class="cls-2" d="M327,285.12v15.77h2.91a2.17,2.17,0,0,1,1.48.4,1.31,1.31,0,0,1,.45,1,1.33,1.33,0,0,1-.45,1,2.22,2.22,0,0,1-1.48.4h-8.7a2.24,2.24,0,0,1-1.48-.4,1.37,1.37,0,0,1-.44-1.05,1.33,1.33,0,0,1,.44-1,2.18,2.18,0,0,1,1.48-.4h2.91v-12l-2.57.68a4,4,0,0,1-.93.17,1.23,1.23,0,0,1-.94-.44,1.52,1.52,0,0,1-.41-1.07,1.29,1.29,0,0,1,.3-.9,2.67,2.67,0,0,1,1.24-.59Z"/><path class="cls-2" d="M349.11,293.07v3.17a10,10,0,0,1-1.62,5.38,5.18,5.18,0,0,1-4.64,2.57,5.37,5.37,0,0,1-3-.77,7.27,7.27,0,0,1-2.28-2.82,9.37,9.37,0,0,1-1.07-4.36v-3.17a10,10,0,0,1,1.62-5.37,5.15,5.15,0,0,1,4.63-2.58,5.35,5.35,0,0,1,2.93.76A7.2,7.2,0,0,1,348,288.7,9.16,9.16,0,0,1,349.11,293.07Zm-2.89,0a6.69,6.69,0,0,0-1.31-4.1,2.5,2.5,0,0,0-2.09-1,2.6,2.6,0,0,0-2.14,1.07,6.37,6.37,0,0,0-1.25,4v3.17a6.6,6.6,0,0,0,1.32,4.1,2.47,2.47,0,0,0,2.1,1,2.59,2.59,0,0,0,2.12-1.07,6.37,6.37,0,0,0,1.25-4Z"/><path class="cls-2" d="M297.3,268v3.17a10,10,0,0,1-1.62,5.38,5.18,5.18,0,0,1-4.64,2.57,5.37,5.37,0,0,1-3-.77,7.17,7.17,0,0,1-2.27-2.82,9.26,9.26,0,0,1-1.08-4.36V268a10,10,0,0,1,1.62-5.37,5.15,5.15,0,0,1,4.63-2.58,5.32,5.32,0,0,1,2.93.76,7.2,7.2,0,0,1,2.29,2.82A9.16,9.16,0,0,1,297.3,268Zm-2.89,0a6.69,6.69,0,0,0-1.31-4.1,2.5,2.5,0,0,0-2.09-1,2.6,2.6,0,0,0-2.14,1.07,6.37,6.37,0,0,0-1.25,4v3.17a6.6,6.6,0,0,0,1.32,4.1,2.47,2.47,0,0,0,2.1,1,2.59,2.59,0,0,0,2.12-1.07,6.37,6.37,0,0,0,1.25-4Z"/><path class="cls-2" d="M309.75,260.06v15.77h2.91a2.17,2.17,0,0,1,1.48.4,1.31,1.31,0,0,1,.45,1,1.33,1.33,0,0,1-.45,1,2.22,2.22,0,0,1-1.48.4H304a2.24,2.24,0,0,1-1.48-.4,1.37,1.37,0,0,1-.44-1.05,1.33,1.33,0,0,1,.44-1,2.18,2.18,0,0,1,1.48-.4h2.91v-12l-2.57.68a4,4,0,0,1-.93.17,1.23,1.23,0,0,1-.94-.44,1.52,1.52,0,0,1-.41-1.07,1.29,1.29,0,0,1,.3-.9,2.67,2.67,0,0,1,1.24-.59Z"/><path class="cls-2" d="M331.84,268v3.17a10,10,0,0,1-1.62,5.38,5.18,5.18,0,0,1-4.64,2.57,5.37,5.37,0,0,1-2.95-.77,7.17,7.17,0,0,1-2.27-2.82,9.26,9.26,0,0,1-1.08-4.36V268a10,10,0,0,1,1.62-5.37,5.15,5.15,0,0,1,4.63-2.58,5.32,5.32,0,0,1,2.93.76,7.2,7.2,0,0,1,2.29,2.82A9.16,9.16,0,0,1,331.84,268ZM329,268a6.69,6.69,0,0,0-1.31-4.1,2.5,2.5,0,0,0-2.09-1,2.6,2.6,0,0,0-2.14,1.07,6.37,6.37,0,0,0-1.25,4v3.17a6.6,6.6,0,0,0,1.32,4.1,2.47,2.47,0,0,0,2.1,1,2.59,2.59,0,0,0,2.12-1.07,6.37,6.37,0,0,0,1.25-4Z"/><path class="cls-2" d="M349.11,268v3.17a10,10,0,0,1-1.62,5.38,5.18,5.18,0,0,1-4.64,2.57,5.37,5.37,0,0,1-3-.77,7.27,7.27,0,0,1-2.28-2.82,9.37,9.37,0,0,1-1.07-4.36V268a10,10,0,0,1,1.62-5.37,5.15,5.15,0,0,1,4.63-2.58,5.35,5.35,0,0,1,2.93.76,7.2,7.2,0,0,1,2.29,2.82A9.16,9.16,0,0,1,349.11,268Zm-2.89,0a6.69,6.69,0,0,0-1.31-4.1,2.5,2.5,0,0,0-2.09-1,2.6,2.6,0,0,0-2.14,1.07,6.37,6.37,0,0,0-1.25,4v3.17a6.6,6.6,0,0,0,1.32,4.1,2.47,2.47,0,0,0,2.1,1,2.59,2.59,0,0,0,2.12-1.07,6.37,6.37,0,0,0,1.25-4Z"/><path class="cls-2" d="M222.08,158.52v15.77H225a2.17,2.17,0,0,1,1.48.4,1.31,1.31,0,0,1,.45,1,1.34,1.34,0,0,1-.45,1,2.22,2.22,0,0,1-1.48.4h-8.7a2.22,2.22,0,0,1-1.48-.4,1.37,1.37,0,0,1-.44-1.05,1.33,1.33,0,0,1,.44-1,2.17,2.17,0,0,1,1.48-.4h2.91v-12l-2.57.68a3.88,3.88,0,0,1-.93.16,1.26,1.26,0,0,1-.95-.43,1.56,1.56,0,0,1-.4-1.07,1.31,1.31,0,0,1,.3-.91,2.63,2.63,0,0,1,1.23-.58Z"/><path class="cls-2" d="M244.17,166.47v3.16a10,10,0,0,1-1.62,5.39,5.18,5.18,0,0,1-4.64,2.57,5.37,5.37,0,0,1-2.95-.77,7.27,7.27,0,0,1-2.28-2.82,9.38,9.38,0,0,1-1.07-4.37v-3.16a10,10,0,0,1,1.62-5.37,5.15,5.15,0,0,1,4.63-2.58,5.35,5.35,0,0,1,2.93.76,7.13,7.13,0,0,1,2.29,2.82A9.16,9.16,0,0,1,244.17,166.47Zm-2.89,0a6.69,6.69,0,0,0-1.31-4.1,2.48,2.48,0,0,0-2.09-1,2.6,2.6,0,0,0-2.14,1.07,6.37,6.37,0,0,0-1.25,4v3.16a6.61,6.61,0,0,0,1.32,4.11,2.49,2.49,0,0,0,2.1,1,2.59,2.59,0,0,0,2.12-1.07,6.38,6.38,0,0,0,1.25-4Z"/><path class="cls-2" d="M256.62,158.52v15.77h2.91a2.17,2.17,0,0,1,1.48.4,1.31,1.31,0,0,1,.45,1,1.34,1.34,0,0,1-.45,1,2.22,2.22,0,0,1-1.48.4h-8.7a2.22,2.22,0,0,1-1.48-.4,1.37,1.37,0,0,1-.44-1.05,1.33,1.33,0,0,1,.44-1,2.17,2.17,0,0,1,1.48-.4h2.91v-12l-2.57.68a3.88,3.88,0,0,1-.93.16,1.26,1.26,0,0,1-1-.43,1.56,1.56,0,0,1-.4-1.07,1.31,1.31,0,0,1,.3-.91,2.63,2.63,0,0,1,1.23-.58Z"/><path class="cls-2" d="M278.71,166.47v3.16a10,10,0,0,1-1.62,5.39,5.19,5.19,0,0,1-4.65,2.57,5.36,5.36,0,0,1-2.94-.77,7.27,7.27,0,0,1-2.28-2.82,9.38,9.38,0,0,1-1.07-4.37v-3.16a10,10,0,0,1,1.61-5.37,5.17,5.17,0,0,1,4.64-2.58,5.35,5.35,0,0,1,2.93.76,7.13,7.13,0,0,1,2.29,2.82A9.16,9.16,0,0,1,278.71,166.47Zm-2.89,0a6.69,6.69,0,0,0-1.31-4.1,2.49,2.49,0,0,0-2.09-1,2.58,2.58,0,0,0-2.14,1.07,6.37,6.37,0,0,0-1.25,4v3.16a6.61,6.61,0,0,0,1.32,4.11,2.48,2.48,0,0,0,2.09,1,2.59,2.59,0,0,0,2.13-1.07,6.38,6.38,0,0,0,1.25-4Z"/><path class="cls-2" d="M226.9,216.87V220a9.94,9.94,0,0,1-1.62,5.38,5.19,5.19,0,0,1-4.65,2.57,5.36,5.36,0,0,1-2.94-.76,7.39,7.39,0,0,1-2.28-2.83,9.37,9.37,0,0,1-1.07-4.36v-3.16a10,10,0,0,1,1.62-5.38,5.15,5.15,0,0,1,4.63-2.58,5.43,5.43,0,0,1,2.93.76,7.28,7.28,0,0,1,2.29,2.82A9.17,9.17,0,0,1,226.9,216.87Zm-2.89,0a6.7,6.7,0,0,0-1.31-4.11,2.5,2.5,0,0,0-2.09-1,2.6,2.6,0,0,0-2.14,1.07,6.38,6.38,0,0,0-1.25,4V220a6.6,6.6,0,0,0,1.32,4.1,2.46,2.46,0,0,0,2.09,1,2.59,2.59,0,0,0,2.13-1.07,6.35,6.35,0,0,0,1.25-4Z"/><path class="cls-2" d="M239.35,208.91v15.77h2.91a2.17,2.17,0,0,1,1.48.4,1.35,1.35,0,0,1,.45,1,1.32,1.32,0,0,1-.45,1,2.17,2.17,0,0,1-1.48.4h-8.7a2.17,2.17,0,0,1-1.48-.4,1.37,1.37,0,0,1-.44-1,1.34,1.34,0,0,1,.44-1,2.17,2.17,0,0,1,1.48-.4h2.91v-12l-2.57.68a4,4,0,0,1-.93.17,1.27,1.27,0,0,1-.95-.44,1.54,1.54,0,0,1-.4-1.07,1.29,1.29,0,0,1,.3-.9,2.62,2.62,0,0,1,1.23-.59Z"/><path class="cls-2" d="M256.62,208.91v15.77h2.91a2.17,2.17,0,0,1,1.48.4,1.35,1.35,0,0,1,.45,1,1.32,1.32,0,0,1-.45,1,2.17,2.17,0,0,1-1.48.4h-8.7a2.17,2.17,0,0,1-1.48-.4,1.37,1.37,0,0,1-.44-1,1.34,1.34,0,0,1,.44-1,2.17,2.17,0,0,1,1.48-.4h2.91v-12l-2.57.68a4,4,0,0,1-.93.17,1.27,1.27,0,0,1-1-.44,1.54,1.54,0,0,1-.4-1.07,1.29,1.29,0,0,1,.3-.9,2.62,2.62,0,0,1,1.23-.59Z"/><path class="cls-2" d="M278.71,216.87V220a9.94,9.94,0,0,1-1.62,5.38,5.19,5.19,0,0,1-4.65,2.57,5.36,5.36,0,0,1-2.94-.76,7.39,7.39,0,0,1-2.28-2.83,9.37,9.37,0,0,1-1.07-4.36v-3.16a10,10,0,0,1,1.61-5.38,5.17,5.17,0,0,1,4.64-2.58,5.43,5.43,0,0,1,2.93.76,7.28,7.28,0,0,1,2.29,2.82A9.17,9.17,0,0,1,278.71,216.87Zm-2.89,0a6.7,6.7,0,0,0-1.31-4.11,2.51,2.51,0,0,0-2.09-1,2.58,2.58,0,0,0-2.14,1.07,6.38,6.38,0,0,0-1.25,4V220a6.6,6.6,0,0,0,1.32,4.1,2.45,2.45,0,0,0,2.09,1,2.59,2.59,0,0,0,2.13-1.07,6.35,6.35,0,0,0,1.25-4Z"/><path class="cls-2" d="M226.9,191.81V195a9.94,9.94,0,0,1-1.62,5.38,5.19,5.19,0,0,1-4.65,2.57,5.36,5.36,0,0,1-2.94-.76,7.39,7.39,0,0,1-2.28-2.83,9.37,9.37,0,0,1-1.07-4.36v-3.16a10,10,0,0,1,1.62-5.38,5.15,5.15,0,0,1,4.63-2.58,5.43,5.43,0,0,1,2.93.76,7.28,7.28,0,0,1,2.29,2.82A9.17,9.17,0,0,1,226.9,191.81Zm-2.89,0a6.7,6.7,0,0,0-1.31-4.11,2.5,2.5,0,0,0-2.09-1,2.6,2.6,0,0,0-2.14,1.07,6.38,6.38,0,0,0-1.25,4V195a6.6,6.6,0,0,0,1.32,4.1,2.46,2.46,0,0,0,2.09,1,2.59,2.59,0,0,0,2.13-1.07,6.35,6.35,0,0,0,1.25-4Z"/><path class="cls-2" d="M239.35,183.85v15.77h2.91a2.17,2.17,0,0,1,1.48.4,1.35,1.35,0,0,1,.45,1,1.32,1.32,0,0,1-.45,1,2.17,2.17,0,0,1-1.48.4h-8.7a2.17,2.17,0,0,1-1.48-.4,1.37,1.37,0,0,1-.44-1,1.34,1.34,0,0,1,.44-1,2.17,2.17,0,0,1,1.48-.4h2.91v-12l-2.57.68a4,4,0,0,1-.93.17A1.27,1.27,0,0,1,232,188a1.54,1.54,0,0,1-.4-1.07,1.29,1.29,0,0,1,.3-.9,2.62,2.62,0,0,1,1.23-.59Z"/><path class="cls-2" d="M261.44,191.81V195a9.94,9.94,0,0,1-1.62,5.38,5.18,5.18,0,0,1-4.64,2.57,5.37,5.37,0,0,1-3-.76,7.39,7.39,0,0,1-2.28-2.83,9.37,9.37,0,0,1-1.07-4.36v-3.16a10,10,0,0,1,1.62-5.38,5.15,5.15,0,0,1,4.63-2.58,5.43,5.43,0,0,1,2.93.76,7.28,7.28,0,0,1,2.29,2.82A9.17,9.17,0,0,1,261.44,191.81Zm-2.89,0a6.7,6.7,0,0,0-1.31-4.11,2.5,2.5,0,0,0-2.09-1A2.6,2.6,0,0,0,253,187.8a6.38,6.38,0,0,0-1.25,4V195a6.6,6.6,0,0,0,1.32,4.1,2.47,2.47,0,0,0,2.1,1A2.59,2.59,0,0,0,257.3,199a6.35,6.35,0,0,0,1.25-4Z"/><path class="cls-2" d="M278.71,191.81V195a9.94,9.94,0,0,1-1.62,5.38,5.19,5.19,0,0,1-4.65,2.57,5.36,5.36,0,0,1-2.94-.76,7.39,7.39,0,0,1-2.28-2.83,9.37,9.37,0,0,1-1.07-4.36v-3.16a10,10,0,0,1,1.61-5.38,5.17,5.17,0,0,1,4.64-2.58,5.43,5.43,0,0,1,2.93.76,7.28,7.28,0,0,1,2.29,2.82A9.17,9.17,0,0,1,278.71,191.81Zm-2.89,0a6.7,6.7,0,0,0-1.31-4.11,2.51,2.51,0,0,0-2.09-1,2.58,2.58,0,0,0-2.14,1.07,6.38,6.38,0,0,0-1.25,4V195a6.6,6.6,0,0,0,1.32,4.1,2.45,2.45,0,0,0,2.09,1,2.59,2.59,0,0,0,2.13-1.07,6.35,6.35,0,0,0,1.25-4Z"/><path class="cls-2" d="M292.5,158.52v15.77h2.91a2.18,2.18,0,0,1,1.48.4,1.34,1.34,0,0,1,.44,1,1.37,1.37,0,0,1-.44,1,2.24,2.24,0,0,1-1.48.4h-8.7a2.2,2.2,0,0,1-1.48-.4,1.35,1.35,0,0,1-.45-1.05,1.31,1.31,0,0,1,.45-1,2.15,2.15,0,0,1,1.48-.4h2.91v-12L287,163a3.9,3.9,0,0,1-.92.16,1.24,1.24,0,0,1-.95-.43,1.51,1.51,0,0,1-.4-1.07,1.36,1.36,0,0,1,.29-.91,2.68,2.68,0,0,1,1.24-.58Z"/><path class="cls-2" d="M314.59,166.47v3.16A9.9,9.9,0,0,1,313,175a5.18,5.18,0,0,1-4.64,2.57,5.36,5.36,0,0,1-2.94-.77A7.18,7.18,0,0,1,303.1,174a9.27,9.27,0,0,1-1.08-4.37v-3.16a10,10,0,0,1,1.62-5.37,5.16,5.16,0,0,1,4.64-2.58,5.35,5.35,0,0,1,2.93.76,7.21,7.21,0,0,1,2.29,2.82A9.28,9.28,0,0,1,314.59,166.47Zm-2.9,0a6.63,6.63,0,0,0-1.31-4.1,2.46,2.46,0,0,0-2.09-1,2.58,2.58,0,0,0-2.13,1.07,6.31,6.31,0,0,0-1.26,4v3.16a6.55,6.55,0,0,0,1.33,4.11,2.46,2.46,0,0,0,2.09,1,2.57,2.57,0,0,0,2.12-1.07,6.32,6.32,0,0,0,1.25-4Z"/><path class="cls-2" d="M327,158.52v15.77H330a2.18,2.18,0,0,1,1.48.4,1.34,1.34,0,0,1,.44,1,1.37,1.37,0,0,1-.44,1,2.24,2.24,0,0,1-1.48.4h-8.7a2.2,2.2,0,0,1-1.48-.4,1.35,1.35,0,0,1-.45-1.05,1.31,1.31,0,0,1,.45-1,2.15,2.15,0,0,1,1.48-.4h2.91v-12l-2.58.68a3.9,3.9,0,0,1-.92.16,1.24,1.24,0,0,1-1-.43,1.51,1.51,0,0,1-.4-1.07,1.36,1.36,0,0,1,.29-.91,2.68,2.68,0,0,1,1.24-.58Z"/><path class="cls-2" d="M349.13,166.47v3.16A9.9,9.9,0,0,1,347.5,175a5.18,5.18,0,0,1-4.64,2.57,5.42,5.42,0,0,1-2.95-.77,7.17,7.17,0,0,1-2.27-2.82,9.27,9.27,0,0,1-1.08-4.37v-3.16a10,10,0,0,1,1.62-5.37,5.16,5.16,0,0,1,4.64-2.58,5.35,5.35,0,0,1,2.93.76A7.21,7.21,0,0,1,348,162.1,9.28,9.28,0,0,1,349.13,166.47Zm-2.9,0a6.63,6.63,0,0,0-1.31-4.1,2.46,2.46,0,0,0-2.09-1,2.61,2.61,0,0,0-2.14,1.07,6.37,6.37,0,0,0-1.25,4v3.16a6.55,6.55,0,0,0,1.33,4.11,2.46,2.46,0,0,0,2.09,1,2.57,2.57,0,0,0,2.12-1.07,6.38,6.38,0,0,0,1.25-4Z"/><path class="cls-2" d="M297.32,216.87V220a9.87,9.87,0,0,1-1.63,5.38,5.18,5.18,0,0,1-4.64,2.57,5.36,5.36,0,0,1-2.94-.76,7.3,7.3,0,0,1-2.28-2.83,9.26,9.26,0,0,1-1.08-4.36v-3.16a10,10,0,0,1,1.62-5.38,5.16,5.16,0,0,1,4.64-2.58,5.43,5.43,0,0,1,2.93.76,7.37,7.37,0,0,1,2.29,2.82A9.29,9.29,0,0,1,297.32,216.87Zm-2.9,0a6.64,6.64,0,0,0-1.31-4.11,2.49,2.49,0,0,0-2.09-1,2.58,2.58,0,0,0-2.13,1.07,6.32,6.32,0,0,0-1.26,4V220a6.54,6.54,0,0,0,1.33,4.1,2.44,2.44,0,0,0,2.09,1,2.57,2.57,0,0,0,2.12-1.07,6.35,6.35,0,0,0,1.25-4Z"/><path class="cls-2" d="M309.77,208.91v15.77h2.91a2.18,2.18,0,0,1,1.48.4,1.37,1.37,0,0,1,.44,1,1.34,1.34,0,0,1-.44,1,2.18,2.18,0,0,1-1.48.4H304a2.15,2.15,0,0,1-1.48-.4,1.35,1.35,0,0,1-.45-1,1.32,1.32,0,0,1,.45-1,2.15,2.15,0,0,1,1.48-.4h2.91v-12l-2.58.68a4,4,0,0,1-.92.17,1.25,1.25,0,0,1-.95-.44A1.5,1.5,0,0,1,302,212a1.33,1.33,0,0,1,.29-.9,2.67,2.67,0,0,1,1.24-.59Z"/><path class="cls-2" d="M327,208.91v15.77H330a2.18,2.18,0,0,1,1.48.4,1.37,1.37,0,0,1,.44,1,1.34,1.34,0,0,1-.44,1,2.18,2.18,0,0,1-1.48.4h-8.7a2.15,2.15,0,0,1-1.48-.4,1.35,1.35,0,0,1-.45-1,1.32,1.32,0,0,1,.45-1,2.15,2.15,0,0,1,1.48-.4h2.91v-12l-2.58.68a4,4,0,0,1-.92.17,1.25,1.25,0,0,1-1-.44,1.5,1.5,0,0,1-.4-1.07,1.33,1.33,0,0,1,.29-.9,2.67,2.67,0,0,1,1.24-.59Z"/><path class="cls-2" d="M349.13,216.87V220a9.87,9.87,0,0,1-1.63,5.38,5.18,5.18,0,0,1-4.64,2.57,5.42,5.42,0,0,1-2.95-.76,7.29,7.29,0,0,1-2.27-2.83,9.26,9.26,0,0,1-1.08-4.36v-3.16a10,10,0,0,1,1.62-5.38,5.16,5.16,0,0,1,4.64-2.58,5.43,5.43,0,0,1,2.93.76,7.37,7.37,0,0,1,2.29,2.82A9.29,9.29,0,0,1,349.13,216.87Zm-2.9,0a6.64,6.64,0,0,0-1.31-4.11,2.49,2.49,0,0,0-2.09-1,2.61,2.61,0,0,0-2.14,1.07,6.38,6.38,0,0,0-1.25,4V220a6.54,6.54,0,0,0,1.33,4.1,2.44,2.44,0,0,0,2.09,1A2.57,2.57,0,0,0,345,224a6.35,6.35,0,0,0,1.25-4Z"/><path class="cls-2" d="M297.32,191.81V195a9.87,9.87,0,0,1-1.63,5.38,5.18,5.18,0,0,1-4.64,2.57,5.36,5.36,0,0,1-2.94-.76,7.3,7.3,0,0,1-2.28-2.83,9.26,9.26,0,0,1-1.08-4.36v-3.16a10,10,0,0,1,1.62-5.38,5.16,5.16,0,0,1,4.64-2.58,5.43,5.43,0,0,1,2.93.76,7.37,7.37,0,0,1,2.29,2.82A9.29,9.29,0,0,1,297.32,191.81Zm-2.9,0a6.64,6.64,0,0,0-1.31-4.11,2.49,2.49,0,0,0-2.09-1,2.58,2.58,0,0,0-2.13,1.07,6.32,6.32,0,0,0-1.26,4V195a6.54,6.54,0,0,0,1.33,4.1,2.44,2.44,0,0,0,2.09,1,2.57,2.57,0,0,0,2.12-1.07,6.35,6.35,0,0,0,1.25-4Z"/><path class="cls-2" d="M309.77,183.85v15.77h2.91a2.18,2.18,0,0,1,1.48.4,1.37,1.37,0,0,1,.44,1,1.34,1.34,0,0,1-.44,1,2.18,2.18,0,0,1-1.48.4H304a2.15,2.15,0,0,1-1.48-.4,1.35,1.35,0,0,1-.45-1,1.32,1.32,0,0,1,.45-1,2.15,2.15,0,0,1,1.48-.4h2.91v-12l-2.58.68a4,4,0,0,1-.92.17,1.25,1.25,0,0,1-.95-.44,1.5,1.5,0,0,1-.4-1.07,1.33,1.33,0,0,1,.29-.9,2.67,2.67,0,0,1,1.24-.59Z"/><path class="cls-2" d="M331.86,191.81V195a9.87,9.87,0,0,1-1.63,5.38,5.18,5.18,0,0,1-4.64,2.57,5.36,5.36,0,0,1-2.94-.76,7.3,7.3,0,0,1-2.28-2.83,9.26,9.26,0,0,1-1.08-4.36v-3.16a10,10,0,0,1,1.62-5.38,5.16,5.16,0,0,1,4.64-2.58,5.43,5.43,0,0,1,2.93.76,7.37,7.37,0,0,1,2.29,2.82A9.29,9.29,0,0,1,331.86,191.81Zm-2.9,0a6.64,6.64,0,0,0-1.31-4.11,2.49,2.49,0,0,0-2.09-1,2.58,2.58,0,0,0-2.13,1.07,6.32,6.32,0,0,0-1.25,4V195a6.54,6.54,0,0,0,1.32,4.1,2.44,2.44,0,0,0,2.09,1,2.57,2.57,0,0,0,2.12-1.07,6.29,6.29,0,0,0,1.25-4Z"/><path class="cls-2" d="M349.13,191.81V195a9.87,9.87,0,0,1-1.63,5.38,5.18,5.18,0,0,1-4.64,2.57,5.42,5.42,0,0,1-2.95-.76,7.29,7.29,0,0,1-2.27-2.83,9.26,9.26,0,0,1-1.08-4.36v-3.16a10,10,0,0,1,1.62-5.38,5.16,5.16,0,0,1,4.64-2.58,5.43,5.43,0,0,1,2.93.76,7.37,7.37,0,0,1,2.29,2.82A9.29,9.29,0,0,1,349.13,191.81Zm-2.9,0a6.64,6.64,0,0,0-1.31-4.11,2.49,2.49,0,0,0-2.09-1,2.61,2.61,0,0,0-2.14,1.07,6.38,6.38,0,0,0-1.25,4V195a6.54,6.54,0,0,0,1.33,4.1,2.44,2.44,0,0,0,2.09,1A2.57,2.57,0,0,0,345,199a6.35,6.35,0,0,0,1.25-4Z"/><path class="cls-2" d="M81.29,234.73v15.76H84.2a2.22,2.22,0,0,1,1.48.4,1.35,1.35,0,0,1,.45,1.05,1.31,1.31,0,0,1-.45,1,2.17,2.17,0,0,1-1.48.4H75.5A2.17,2.17,0,0,1,74,253a1.3,1.3,0,0,1-.44-1,1.33,1.33,0,0,1,.44-1,2.22,2.22,0,0,1,1.48-.4h2.91v-12l-2.57.67a3.54,3.54,0,0,1-.93.17,1.26,1.26,0,0,1-1-.43,1.56,1.56,0,0,1-.4-1.07,1.31,1.31,0,0,1,.3-.91,2.63,2.63,0,0,1,1.23-.58Z"/><path class="cls-2" d="M103.38,242.68v3.16a9.91,9.91,0,0,1-1.62,5.38,5.18,5.18,0,0,1-4.65,2.58,5.36,5.36,0,0,1-2.94-.77,7.27,7.27,0,0,1-2.28-2.82,9.41,9.41,0,0,1-1.07-4.37v-3.16a10,10,0,0,1,1.61-5.37,5.17,5.17,0,0,1,4.64-2.58,5.35,5.35,0,0,1,2.93.76,7.16,7.16,0,0,1,2.29,2.81A9.2,9.2,0,0,1,103.38,242.68Zm-2.89,0a6.69,6.69,0,0,0-1.31-4.1,2.48,2.48,0,0,0-2.09-1A2.56,2.56,0,0,0,95,238.68a6.35,6.35,0,0,0-1.25,4v3.16A6.63,6.63,0,0,0,95,250a2.48,2.48,0,0,0,2.09,1,2.59,2.59,0,0,0,2.13-1.07,6.38,6.38,0,0,0,1.25-4Z"/><path class="cls-2" d="M115.83,234.73v15.76h2.91a2.22,2.22,0,0,1,1.48.4,1.35,1.35,0,0,1,.45,1.05,1.31,1.31,0,0,1-.45,1,2.17,2.17,0,0,1-1.48.4H110a2.17,2.17,0,0,1-1.48-.4,1.3,1.3,0,0,1-.44-1,1.33,1.33,0,0,1,.44-1,2.22,2.22,0,0,1,1.48-.4H113v-12l-2.57.67a3.54,3.54,0,0,1-.93.17,1.26,1.26,0,0,1-1-.43,1.56,1.56,0,0,1-.4-1.07,1.31,1.31,0,0,1,.3-.91,2.63,2.63,0,0,1,1.23-.58Z"/><path class="cls-2" d="M137.92,242.68v3.16a9.91,9.91,0,0,1-1.62,5.38,5.19,5.19,0,0,1-4.65,2.58,5.36,5.36,0,0,1-2.94-.77,7.27,7.27,0,0,1-2.28-2.82,9.41,9.41,0,0,1-1.07-4.37v-3.16a10,10,0,0,1,1.61-5.37,5.17,5.17,0,0,1,4.64-2.58,5.35,5.35,0,0,1,2.93.76,7.16,7.16,0,0,1,2.29,2.81A9.2,9.2,0,0,1,137.92,242.68Zm-2.89,0a6.69,6.69,0,0,0-1.31-4.1,2.49,2.49,0,0,0-2.1-1,2.55,2.55,0,0,0-2.13,1.07,6.35,6.35,0,0,0-1.25,4v3.16a6.63,6.63,0,0,0,1.32,4.11,2.48,2.48,0,0,0,2.09,1,2.57,2.57,0,0,0,2.12-1.07,6.32,6.32,0,0,0,1.26-4Z"/><path class="cls-2" d="M86.11,293.07v3.17a10,10,0,0,1-1.62,5.38,5.19,5.19,0,0,1-4.65,2.57,5.36,5.36,0,0,1-2.94-.77,7.27,7.27,0,0,1-2.28-2.82,9.37,9.37,0,0,1-1.07-4.36v-3.17a10,10,0,0,1,1.61-5.37,5.17,5.17,0,0,1,4.64-2.58,5.35,5.35,0,0,1,2.93.76A7.2,7.2,0,0,1,85,288.7,9.16,9.16,0,0,1,86.11,293.07Zm-2.89,0a6.69,6.69,0,0,0-1.31-4.1,2.5,2.5,0,0,0-2.09-1,2.58,2.58,0,0,0-2.14,1.07,6.37,6.37,0,0,0-1.25,4v3.17a6.6,6.6,0,0,0,1.32,4.1,2.45,2.45,0,0,0,2.09,1A2.59,2.59,0,0,0,82,300.24a6.37,6.37,0,0,0,1.25-4Z"/><path class="cls-2" d="M98.56,285.12v15.77h2.91a2.17,2.17,0,0,1,1.48.4,1.31,1.31,0,0,1,.45,1,1.33,1.33,0,0,1-.45,1,2.22,2.22,0,0,1-1.48.4h-8.7a2.22,2.22,0,0,1-1.48-.4,1.34,1.34,0,0,1-.44-1.05,1.3,1.3,0,0,1,.44-1,2.17,2.17,0,0,1,1.48-.4h2.91v-12l-2.57.68a4,4,0,0,1-.93.17,1.27,1.27,0,0,1-1-.44,1.56,1.56,0,0,1-.4-1.07,1.29,1.29,0,0,1,.3-.9,2.62,2.62,0,0,1,1.23-.59Z"/><path class="cls-2" d="M115.83,285.12v15.77h2.91a2.17,2.17,0,0,1,1.48.4,1.31,1.31,0,0,1,.45,1,1.33,1.33,0,0,1-.45,1,2.22,2.22,0,0,1-1.48.4H110a2.22,2.22,0,0,1-1.48-.4,1.34,1.34,0,0,1-.44-1.05,1.3,1.3,0,0,1,.44-1,2.17,2.17,0,0,1,1.48-.4H113v-12l-2.57.68a4,4,0,0,1-.93.17,1.27,1.27,0,0,1-1-.44,1.56,1.56,0,0,1-.4-1.07,1.29,1.29,0,0,1,.3-.9,2.62,2.62,0,0,1,1.23-.59Z"/><path class="cls-2" d="M137.92,293.07v3.17a10,10,0,0,1-1.62,5.38,5.2,5.2,0,0,1-4.65,2.57,5.36,5.36,0,0,1-2.94-.77,7.27,7.27,0,0,1-2.28-2.82,9.37,9.37,0,0,1-1.07-4.36v-3.17A10,10,0,0,1,127,287.7a5.17,5.17,0,0,1,4.64-2.58,5.35,5.35,0,0,1,2.93.76,7.2,7.2,0,0,1,2.29,2.82A9.16,9.16,0,0,1,137.92,293.07Zm-2.89,0a6.69,6.69,0,0,0-1.31-4.1,2.52,2.52,0,0,0-2.1-1,2.58,2.58,0,0,0-2.13,1.07,6.37,6.37,0,0,0-1.25,4v3.17a6.6,6.6,0,0,0,1.32,4.1,2.45,2.45,0,0,0,2.09,1,2.57,2.57,0,0,0,2.12-1.07,6.31,6.31,0,0,0,1.26-4Z"/><path class="cls-2" d="M86.11,268v3.17a10,10,0,0,1-1.62,5.38,5.19,5.19,0,0,1-4.65,2.57,5.36,5.36,0,0,1-2.94-.77,7.27,7.27,0,0,1-2.28-2.82,9.37,9.37,0,0,1-1.07-4.36V268a10,10,0,0,1,1.61-5.37,5.17,5.17,0,0,1,4.64-2.58,5.35,5.35,0,0,1,2.93.76A7.2,7.2,0,0,1,85,263.64,9.16,9.16,0,0,1,86.11,268Zm-2.89,0a6.69,6.69,0,0,0-1.31-4.1,2.5,2.5,0,0,0-2.09-1A2.58,2.58,0,0,0,77.68,264a6.37,6.37,0,0,0-1.25,4v3.17a6.6,6.6,0,0,0,1.32,4.1,2.45,2.45,0,0,0,2.09,1A2.59,2.59,0,0,0,82,275.18a6.37,6.37,0,0,0,1.25-4Z"/><path class="cls-2" d="M98.56,260.06v15.77h2.91a2.17,2.17,0,0,1,1.48.4,1.31,1.31,0,0,1,.45,1,1.33,1.33,0,0,1-.45,1,2.22,2.22,0,0,1-1.48.4h-8.7a2.22,2.22,0,0,1-1.48-.4,1.34,1.34,0,0,1-.44-1.05,1.3,1.3,0,0,1,.44-1,2.17,2.17,0,0,1,1.48-.4h2.91v-12l-2.57.68a4,4,0,0,1-.93.17,1.27,1.27,0,0,1-1-.44,1.56,1.56,0,0,1-.4-1.07,1.29,1.29,0,0,1,.3-.9,2.62,2.62,0,0,1,1.23-.59Z"/><path class="cls-2" d="M120.65,268v3.17a10,10,0,0,1-1.62,5.38,5.19,5.19,0,0,1-4.65,2.57,5.36,5.36,0,0,1-2.94-.77,7.27,7.27,0,0,1-2.28-2.82,9.37,9.37,0,0,1-1.07-4.36V268a10,10,0,0,1,1.61-5.37,5.17,5.17,0,0,1,4.64-2.58,5.35,5.35,0,0,1,2.93.76,7.2,7.2,0,0,1,2.29,2.82A9.16,9.16,0,0,1,120.65,268Zm-2.89,0a6.69,6.69,0,0,0-1.31-4.1,2.5,2.5,0,0,0-2.09-1,2.58,2.58,0,0,0-2.14,1.07,6.37,6.37,0,0,0-1.25,4v3.17a6.6,6.6,0,0,0,1.32,4.1,2.45,2.45,0,0,0,2.09,1,2.59,2.59,0,0,0,2.13-1.07,6.37,6.37,0,0,0,1.25-4Z"/><path class="cls-2" d="M137.92,268v3.17a10,10,0,0,1-1.62,5.38,5.2,5.2,0,0,1-4.65,2.57,5.36,5.36,0,0,1-2.94-.77,7.27,7.27,0,0,1-2.28-2.82,9.37,9.37,0,0,1-1.07-4.36V268a10,10,0,0,1,1.61-5.37,5.17,5.17,0,0,1,4.64-2.58,5.35,5.35,0,0,1,2.93.76,7.2,7.2,0,0,1,2.29,2.82A9.16,9.16,0,0,1,137.92,268ZM135,268a6.69,6.69,0,0,0-1.31-4.1,2.52,2.52,0,0,0-2.1-1,2.58,2.58,0,0,0-2.13,1.07,6.37,6.37,0,0,0-1.25,4v3.17a6.6,6.6,0,0,0,1.32,4.1,2.45,2.45,0,0,0,2.09,1,2.57,2.57,0,0,0,2.12-1.07,6.31,6.31,0,0,0,1.26-4Z"/><path class="cls-2" d="M151.71,234.73v15.76h2.9a2.25,2.25,0,0,1,1.49.4,1.37,1.37,0,0,1,.44,1.05,1.33,1.33,0,0,1-.44,1,2.2,2.2,0,0,1-1.49.4h-8.69a2.2,2.2,0,0,1-1.49-.4,1.34,1.34,0,0,1-.44-1,1.37,1.37,0,0,1,.44-1,2.25,2.25,0,0,1,1.49-.4h2.91v-12l-2.58.67a3.55,3.55,0,0,1-.92.17,1.24,1.24,0,0,1-1-.43,1.51,1.51,0,0,1-.4-1.07,1.36,1.36,0,0,1,.29-.91,2.68,2.68,0,0,1,1.24-.58Z"/><path class="cls-2" d="M173.8,242.68v3.16a9.84,9.84,0,0,1-1.63,5.38,5.17,5.17,0,0,1-4.64,2.58,5.42,5.42,0,0,1-2.95-.77,7.26,7.26,0,0,1-2.27-2.82,9.3,9.3,0,0,1-1.08-4.37v-3.16a9.93,9.93,0,0,1,1.62-5.37,5.16,5.16,0,0,1,4.64-2.58,5.35,5.35,0,0,1,2.93.76,7.25,7.25,0,0,1,2.29,2.81A9.32,9.32,0,0,1,173.8,242.68Zm-2.9,0a6.63,6.63,0,0,0-1.31-4.1,2.46,2.46,0,0,0-2.09-1,2.58,2.58,0,0,0-2.14,1.07,6.35,6.35,0,0,0-1.25,4v3.16a6.57,6.57,0,0,0,1.33,4.11,2.46,2.46,0,0,0,2.09,1,2.57,2.57,0,0,0,2.12-1.07,6.38,6.38,0,0,0,1.25-4Z"/><path class="cls-2" d="M186.25,234.73v15.76h2.9a2.25,2.25,0,0,1,1.49.4,1.37,1.37,0,0,1,.44,1.05,1.33,1.33,0,0,1-.44,1,2.2,2.2,0,0,1-1.49.4h-8.69A2.2,2.2,0,0,1,179,253a1.34,1.34,0,0,1-.44-1,1.37,1.37,0,0,1,.44-1,2.25,2.25,0,0,1,1.49-.4h2.91v-12l-2.58.67a3.55,3.55,0,0,1-.92.17,1.24,1.24,0,0,1-1-.43,1.51,1.51,0,0,1-.4-1.07,1.36,1.36,0,0,1,.29-.91,2.68,2.68,0,0,1,1.24-.58Z"/><path class="cls-2" d="M208.33,242.68v3.16a9.91,9.91,0,0,1-1.62,5.38,5.17,5.17,0,0,1-4.64,2.58,5.42,5.42,0,0,1-2.95-.77,7.17,7.17,0,0,1-2.27-2.82,9.3,9.3,0,0,1-1.08-4.37v-3.16a9.93,9.93,0,0,1,1.62-5.37,5.16,5.16,0,0,1,4.64-2.58,5.37,5.37,0,0,1,2.93.76,7.25,7.25,0,0,1,2.29,2.81A9.31,9.31,0,0,1,208.33,242.68Zm-2.89,0a6.63,6.63,0,0,0-1.31-4.1,2.46,2.46,0,0,0-2.09-1,2.58,2.58,0,0,0-2.14,1.07,6.35,6.35,0,0,0-1.25,4v3.16A6.63,6.63,0,0,0,200,250a2.49,2.49,0,0,0,2.1,1,2.57,2.57,0,0,0,2.12-1.07,6.38,6.38,0,0,0,1.25-4Z"/><path class="cls-2" d="M156.53,293.07v3.17a9.89,9.89,0,0,1-1.63,5.38,5.18,5.18,0,0,1-4.64,2.57,5.42,5.42,0,0,1-2.95-.77A7.17,7.17,0,0,1,145,300.6a9.26,9.26,0,0,1-1.08-4.36v-3.17a10,10,0,0,1,1.62-5.37,5.16,5.16,0,0,1,4.64-2.58,5.35,5.35,0,0,1,2.93.76,7.29,7.29,0,0,1,2.29,2.82A9.28,9.28,0,0,1,156.53,293.07Zm-2.9,0a6.63,6.63,0,0,0-1.31-4.1,2.49,2.49,0,0,0-2.09-1,2.61,2.61,0,0,0-2.14,1.07,6.37,6.37,0,0,0-1.25,4v3.17a6.54,6.54,0,0,0,1.33,4.1,2.44,2.44,0,0,0,2.09,1,2.57,2.57,0,0,0,2.12-1.07,6.37,6.37,0,0,0,1.25-4Z"/><path class="cls-2" d="M169,285.12v15.77h2.9a2.2,2.2,0,0,1,1.49.4,1.34,1.34,0,0,1,.44,1,1.35,1.35,0,0,1-.44,1,2.25,2.25,0,0,1-1.49.4h-8.69a2.25,2.25,0,0,1-1.49-.4,1.37,1.37,0,0,1-.44-1.05,1.33,1.33,0,0,1,.44-1,2.2,2.2,0,0,1,1.49-.4h2.91v-12l-2.58.68a4,4,0,0,1-.92.17,1.25,1.25,0,0,1-.95-.44,1.51,1.51,0,0,1-.4-1.07,1.33,1.33,0,0,1,.29-.9,2.67,2.67,0,0,1,1.24-.59Z"/><path class="cls-2" d="M186.25,285.12v15.77h2.9a2.2,2.2,0,0,1,1.49.4,1.34,1.34,0,0,1,.44,1,1.35,1.35,0,0,1-.44,1,2.25,2.25,0,0,1-1.49.4h-8.69a2.25,2.25,0,0,1-1.49-.4,1.37,1.37,0,0,1-.44-1.05,1.33,1.33,0,0,1,.44-1,2.2,2.2,0,0,1,1.49-.4h2.91v-12l-2.58.68a4,4,0,0,1-.92.17,1.25,1.25,0,0,1-1-.44,1.51,1.51,0,0,1-.4-1.07,1.33,1.33,0,0,1,.29-.9,2.67,2.67,0,0,1,1.24-.59Z"/><path class="cls-2" d="M208.33,293.07v3.17a10,10,0,0,1-1.62,5.38,5.18,5.18,0,0,1-4.64,2.57,5.42,5.42,0,0,1-2.95-.77,7.17,7.17,0,0,1-2.27-2.82,9.26,9.26,0,0,1-1.08-4.36v-3.17a10,10,0,0,1,1.62-5.37,5.16,5.16,0,0,1,4.64-2.58,5.37,5.37,0,0,1,2.93.76,7.29,7.29,0,0,1,2.29,2.82A9.27,9.27,0,0,1,208.33,293.07Zm-2.89,0a6.63,6.63,0,0,0-1.31-4.1,2.49,2.49,0,0,0-2.09-1,2.61,2.61,0,0,0-2.14,1.07,6.37,6.37,0,0,0-1.25,4v3.17a6.6,6.6,0,0,0,1.32,4.1,2.47,2.47,0,0,0,2.1,1,2.57,2.57,0,0,0,2.12-1.07,6.37,6.37,0,0,0,1.25-4Z"/><path class="cls-2" d="M156.53,268v3.17a9.89,9.89,0,0,1-1.63,5.38,5.18,5.18,0,0,1-4.64,2.57,5.42,5.42,0,0,1-2.95-.77,7.17,7.17,0,0,1-2.27-2.82,9.26,9.26,0,0,1-1.08-4.36V268a10,10,0,0,1,1.62-5.37,5.16,5.16,0,0,1,4.64-2.58,5.35,5.35,0,0,1,2.93.76,7.29,7.29,0,0,1,2.29,2.82A9.28,9.28,0,0,1,156.53,268Zm-2.9,0a6.63,6.63,0,0,0-1.31-4.1,2.49,2.49,0,0,0-2.09-1,2.61,2.61,0,0,0-2.14,1.07,6.37,6.37,0,0,0-1.25,4v3.17a6.54,6.54,0,0,0,1.33,4.1,2.44,2.44,0,0,0,2.09,1,2.57,2.57,0,0,0,2.12-1.07,6.37,6.37,0,0,0,1.25-4Z"/><path class="cls-2" d="M169,260.06v15.77h2.9a2.2,2.2,0,0,1,1.49.4,1.34,1.34,0,0,1,.44,1,1.35,1.35,0,0,1-.44,1,2.25,2.25,0,0,1-1.49.4h-8.69a2.25,2.25,0,0,1-1.49-.4,1.37,1.37,0,0,1-.44-1.05,1.33,1.33,0,0,1,.44-1,2.2,2.2,0,0,1,1.49-.4h2.91v-12l-2.58.68a4,4,0,0,1-.92.17,1.25,1.25,0,0,1-.95-.44,1.51,1.51,0,0,1-.4-1.07,1.33,1.33,0,0,1,.29-.9,2.67,2.67,0,0,1,1.24-.59Z"/><path class="cls-2" d="M191.07,268v3.17a9.89,9.89,0,0,1-1.63,5.38,5.18,5.18,0,0,1-4.64,2.57,5.42,5.42,0,0,1-3-.77,7.26,7.26,0,0,1-2.27-2.82,9.26,9.26,0,0,1-1.08-4.36V268a10,10,0,0,1,1.62-5.37,5.16,5.16,0,0,1,4.64-2.58,5.35,5.35,0,0,1,2.93.76,7.29,7.29,0,0,1,2.29,2.82A9.28,9.28,0,0,1,191.07,268Zm-2.9,0a6.63,6.63,0,0,0-1.31-4.1,2.49,2.49,0,0,0-2.09-1,2.61,2.61,0,0,0-2.14,1.07,6.37,6.37,0,0,0-1.25,4v3.17a6.54,6.54,0,0,0,1.33,4.1,2.44,2.44,0,0,0,2.09,1,2.57,2.57,0,0,0,2.12-1.07,6.37,6.37,0,0,0,1.25-4Z"/><path class="cls-2" d="M208.33,268v3.17a10,10,0,0,1-1.62,5.38,5.18,5.18,0,0,1-4.64,2.57,5.42,5.42,0,0,1-2.95-.77,7.17,7.17,0,0,1-2.27-2.82,9.26,9.26,0,0,1-1.08-4.36V268a10,10,0,0,1,1.62-5.37,5.16,5.16,0,0,1,4.64-2.58,5.37,5.37,0,0,1,2.93.76,7.29,7.29,0,0,1,2.29,2.82A9.27,9.27,0,0,1,208.33,268Zm-2.89,0a6.63,6.63,0,0,0-1.31-4.1,2.49,2.49,0,0,0-2.09-1A2.61,2.61,0,0,0,199.9,264a6.37,6.37,0,0,0-1.25,4v3.17a6.6,6.6,0,0,0,1.32,4.1,2.47,2.47,0,0,0,2.1,1,2.57,2.57,0,0,0,2.12-1.07,6.37,6.37,0,0,0,1.25-4Z"/><path class="cls-2" d="M81.3,158.52v15.77h2.91a2.2,2.2,0,0,1,1.49.4,1.34,1.34,0,0,1,.44,1,1.37,1.37,0,0,1-.44,1,2.25,2.25,0,0,1-1.49.4H75.52a2.25,2.25,0,0,1-1.49-.4,1.37,1.37,0,0,1-.44-1.05,1.33,1.33,0,0,1,.44-1,2.2,2.2,0,0,1,1.49-.4h2.9v-12l-2.57.68a3.9,3.9,0,0,1-.92.16,1.23,1.23,0,0,1-1-.43,1.51,1.51,0,0,1-.4-1.07,1.36,1.36,0,0,1,.29-.91,2.68,2.68,0,0,1,1.24-.58Z"/><path class="cls-2" d="M103.39,166.47v3.16a10,10,0,0,1-1.62,5.39,5.18,5.18,0,0,1-4.64,2.57,5.42,5.42,0,0,1-2.95-.77A7.17,7.17,0,0,1,91.91,174a9.27,9.27,0,0,1-1.08-4.37v-3.16a10,10,0,0,1,1.62-5.37,5.16,5.16,0,0,1,4.64-2.58,5.37,5.37,0,0,1,2.93.76,7.21,7.21,0,0,1,2.29,2.82A9.27,9.27,0,0,1,103.39,166.47Zm-2.89,0a6.69,6.69,0,0,0-1.31-4.1,2.46,2.46,0,0,0-2.09-1A2.61,2.61,0,0,0,95,162.47a6.37,6.37,0,0,0-1.25,4v3.16A6.61,6.61,0,0,0,95,173.74a2.49,2.49,0,0,0,2.1,1,2.57,2.57,0,0,0,2.12-1.07,6.38,6.38,0,0,0,1.25-4Z"/><path class="cls-2" d="M115.84,158.52v15.77h2.91a2.2,2.2,0,0,1,1.49.4,1.34,1.34,0,0,1,.44,1,1.37,1.37,0,0,1-.44,1,2.25,2.25,0,0,1-1.49.4h-8.69a2.25,2.25,0,0,1-1.49-.4,1.37,1.37,0,0,1-.44-1.05,1.33,1.33,0,0,1,.44-1,2.2,2.2,0,0,1,1.49-.4H113v-12l-2.57.68a3.9,3.9,0,0,1-.92.16,1.23,1.23,0,0,1-1-.43,1.51,1.51,0,0,1-.4-1.07,1.36,1.36,0,0,1,.29-.91,2.68,2.68,0,0,1,1.24-.58Z"/><path class="cls-2" d="M137.93,166.47v3.16a10,10,0,0,1-1.62,5.39,5.18,5.18,0,0,1-4.64,2.57,5.4,5.4,0,0,1-2.95-.77,7.17,7.17,0,0,1-2.27-2.82,9.27,9.27,0,0,1-1.08-4.37v-3.16A10,10,0,0,1,127,161.1a5.15,5.15,0,0,1,4.63-2.58,5.32,5.32,0,0,1,2.93.76,7.22,7.22,0,0,1,2.3,2.82A9.27,9.27,0,0,1,137.93,166.47Zm-2.89,0a6.69,6.69,0,0,0-1.31-4.1,2.46,2.46,0,0,0-2.09-1,2.6,2.6,0,0,0-2.14,1.07,6.37,6.37,0,0,0-1.25,4v3.16a6.61,6.61,0,0,0,1.32,4.11,2.49,2.49,0,0,0,2.1,1,2.57,2.57,0,0,0,2.12-1.07,6.38,6.38,0,0,0,1.25-4Z"/><path class="cls-2" d="M86.12,216.87V220a9.94,9.94,0,0,1-1.62,5.38A5.18,5.18,0,0,1,79.86,228a5.42,5.42,0,0,1-3-.76,7.29,7.29,0,0,1-2.27-2.83A9.26,9.26,0,0,1,73.56,220v-3.16a10,10,0,0,1,1.62-5.38,5.16,5.16,0,0,1,4.64-2.58,5.46,5.46,0,0,1,2.93.76A7.37,7.37,0,0,1,85,212.49,9.28,9.28,0,0,1,86.12,216.87Zm-2.89,0a6.7,6.7,0,0,0-1.31-4.11,2.49,2.49,0,0,0-2.09-1,2.61,2.61,0,0,0-2.14,1.07,6.38,6.38,0,0,0-1.25,4V220a6.6,6.6,0,0,0,1.32,4.1,2.47,2.47,0,0,0,2.1,1A2.57,2.57,0,0,0,82,224a6.35,6.35,0,0,0,1.25-4Z"/><path class="cls-2" d="M98.57,208.91v15.77h2.91a2.2,2.2,0,0,1,1.49.4,1.37,1.37,0,0,1,.44,1,1.34,1.34,0,0,1-.44,1,2.2,2.2,0,0,1-1.49.4H92.79a2.2,2.2,0,0,1-1.49-.4,1.37,1.37,0,0,1-.44-1,1.34,1.34,0,0,1,.44-1,2.2,2.2,0,0,1,1.49-.4h2.9v-12l-2.57.68a4,4,0,0,1-.92.17,1.24,1.24,0,0,1-1-.44,1.5,1.5,0,0,1-.4-1.07,1.33,1.33,0,0,1,.29-.9,2.67,2.67,0,0,1,1.24-.59Z"/><path class="cls-2" d="M115.84,208.91v15.77h2.91a2.2,2.2,0,0,1,1.49.4,1.37,1.37,0,0,1,.44,1,1.34,1.34,0,0,1-.44,1,2.2,2.2,0,0,1-1.49.4h-8.69a2.2,2.2,0,0,1-1.49-.4,1.37,1.37,0,0,1-.44-1,1.34,1.34,0,0,1,.44-1,2.2,2.2,0,0,1,1.49-.4H113v-12l-2.57.68a4,4,0,0,1-.92.17,1.24,1.24,0,0,1-1-.44,1.5,1.5,0,0,1-.4-1.07,1.33,1.33,0,0,1,.29-.9,2.67,2.67,0,0,1,1.24-.59Z"/><path class="cls-2" d="M137.93,216.87V220a9.94,9.94,0,0,1-1.62,5.38,5.18,5.18,0,0,1-4.64,2.57,5.39,5.39,0,0,1-2.95-.76,7.29,7.29,0,0,1-2.27-2.83,9.26,9.26,0,0,1-1.08-4.36v-3.16a10,10,0,0,1,1.62-5.38,5.15,5.15,0,0,1,4.63-2.58,5.41,5.41,0,0,1,2.93.76,7.38,7.38,0,0,1,2.3,2.82A9.28,9.28,0,0,1,137.93,216.87Zm-2.89,0a6.7,6.7,0,0,0-1.31-4.11,2.49,2.49,0,0,0-2.09-1,2.6,2.6,0,0,0-2.14,1.07,6.38,6.38,0,0,0-1.25,4V220a6.6,6.6,0,0,0,1.32,4.1,2.47,2.47,0,0,0,2.1,1,2.57,2.57,0,0,0,2.12-1.07,6.35,6.35,0,0,0,1.25-4Z"/><path class="cls-2" d="M86.12,191.81V195a9.94,9.94,0,0,1-1.62,5.38,5.18,5.18,0,0,1-4.64,2.57,5.42,5.42,0,0,1-3-.76,7.29,7.29,0,0,1-2.27-2.83A9.26,9.26,0,0,1,73.56,195v-3.16a10,10,0,0,1,1.62-5.38,5.16,5.16,0,0,1,4.64-2.58,5.46,5.46,0,0,1,2.93.76A7.37,7.37,0,0,1,85,187.43,9.28,9.28,0,0,1,86.12,191.81Zm-2.89,0a6.7,6.7,0,0,0-1.31-4.11,2.49,2.49,0,0,0-2.09-1,2.61,2.61,0,0,0-2.14,1.07,6.38,6.38,0,0,0-1.25,4V195a6.6,6.6,0,0,0,1.32,4.1,2.47,2.47,0,0,0,2.1,1A2.57,2.57,0,0,0,82,199a6.35,6.35,0,0,0,1.25-4Z"/><path class="cls-2" d="M98.57,183.85v15.77h2.91a2.2,2.2,0,0,1,1.49.4,1.37,1.37,0,0,1,.44,1,1.34,1.34,0,0,1-.44,1,2.2,2.2,0,0,1-1.49.4H92.79a2.2,2.2,0,0,1-1.49-.4,1.37,1.37,0,0,1-.44-1,1.34,1.34,0,0,1,.44-1,2.2,2.2,0,0,1,1.49-.4h2.9v-12l-2.57.68a4,4,0,0,1-.92.17,1.24,1.24,0,0,1-1-.44,1.5,1.5,0,0,1-.4-1.07,1.33,1.33,0,0,1,.29-.9,2.67,2.67,0,0,1,1.24-.59Z"/><path class="cls-2" d="M120.66,191.81V195a9.94,9.94,0,0,1-1.62,5.38,5.18,5.18,0,0,1-4.64,2.57,5.42,5.42,0,0,1-3-.76,7.29,7.29,0,0,1-2.27-2.83A9.26,9.26,0,0,1,108.1,195v-3.16a10,10,0,0,1,1.62-5.38,5.16,5.16,0,0,1,4.64-2.58,5.46,5.46,0,0,1,2.93.76,7.37,7.37,0,0,1,2.29,2.82A9.28,9.28,0,0,1,120.66,191.81Zm-2.89,0a6.7,6.7,0,0,0-1.31-4.11,2.49,2.49,0,0,0-2.09-1,2.61,2.61,0,0,0-2.14,1.07,6.38,6.38,0,0,0-1.25,4V195a6.6,6.6,0,0,0,1.32,4.1,2.47,2.47,0,0,0,2.1,1,2.57,2.57,0,0,0,2.12-1.07,6.35,6.35,0,0,0,1.25-4Z"/><path class="cls-2" d="M137.93,191.81V195a9.94,9.94,0,0,1-1.62,5.38,5.18,5.18,0,0,1-4.64,2.57,5.39,5.39,0,0,1-2.95-.76,7.29,7.29,0,0,1-2.27-2.83,9.26,9.26,0,0,1-1.08-4.36v-3.16a10,10,0,0,1,1.62-5.38,5.15,5.15,0,0,1,4.63-2.58,5.41,5.41,0,0,1,2.93.76,7.38,7.38,0,0,1,2.3,2.82A9.28,9.28,0,0,1,137.93,191.81Zm-2.89,0a6.7,6.7,0,0,0-1.31-4.11,2.49,2.49,0,0,0-2.09-1,2.6,2.6,0,0,0-2.14,1.07,6.38,6.38,0,0,0-1.25,4V195a6.6,6.6,0,0,0,1.32,4.1,2.47,2.47,0,0,0,2.1,1,2.57,2.57,0,0,0,2.12-1.07,6.35,6.35,0,0,0,1.25-4Z"/><path class="cls-2" d="M151.72,158.52v15.77h2.91a2.17,2.17,0,0,1,1.48.4,1.3,1.3,0,0,1,.44,1,1.33,1.33,0,0,1-.44,1,2.22,2.22,0,0,1-1.48.4h-8.7a2.22,2.22,0,0,1-1.48-.4,1.34,1.34,0,0,1-.44-1.05,1.3,1.3,0,0,1,.44-1,2.17,2.17,0,0,1,1.48-.4h2.91v-12l-2.57.68a3.88,3.88,0,0,1-.93.16,1.24,1.24,0,0,1-1-.43,1.51,1.51,0,0,1-.4-1.07,1.31,1.31,0,0,1,.3-.91,2.63,2.63,0,0,1,1.23-.58Z"/><path class="cls-2" d="M173.81,166.47v3.16a10,10,0,0,1-1.62,5.39,5.2,5.2,0,0,1-4.65,2.57,5.36,5.36,0,0,1-2.94-.77,7.27,7.27,0,0,1-2.28-2.82,9.38,9.38,0,0,1-1.07-4.37v-3.16a10,10,0,0,1,1.61-5.37,5.17,5.17,0,0,1,4.64-2.58,5.35,5.35,0,0,1,2.93.76,7.21,7.21,0,0,1,2.29,2.82A9.16,9.16,0,0,1,173.81,166.47Zm-2.89,0a6.69,6.69,0,0,0-1.31-4.1,2.49,2.49,0,0,0-2.1-1,2.58,2.58,0,0,0-2.13,1.07,6.37,6.37,0,0,0-1.25,4v3.16a6.61,6.61,0,0,0,1.32,4.11,2.48,2.48,0,0,0,2.09,1,2.57,2.57,0,0,0,2.12-1.07,6.32,6.32,0,0,0,1.26-4Z"/><path class="cls-2" d="M186.26,158.52v15.77h2.91a2.17,2.17,0,0,1,1.48.4,1.3,1.3,0,0,1,.44,1,1.33,1.33,0,0,1-.44,1,2.22,2.22,0,0,1-1.48.4h-8.7a2.22,2.22,0,0,1-1.48-.4,1.34,1.34,0,0,1-.44-1.05,1.3,1.3,0,0,1,.44-1,2.17,2.17,0,0,1,1.48-.4h2.91v-12l-2.57.68a3.88,3.88,0,0,1-.93.16,1.26,1.26,0,0,1-.95-.43,1.51,1.51,0,0,1-.4-1.07,1.31,1.31,0,0,1,.3-.91,2.63,2.63,0,0,1,1.23-.58Z"/><path class="cls-2" d="M208.35,166.47v3.16a10,10,0,0,1-1.62,5.39,5.2,5.2,0,0,1-4.65,2.57,5.36,5.36,0,0,1-2.94-.77,7.27,7.27,0,0,1-2.28-2.82,9.26,9.26,0,0,1-1.07-4.37v-3.16a10,10,0,0,1,1.61-5.37,5.17,5.17,0,0,1,4.64-2.58,5.35,5.35,0,0,1,2.93.76,7.21,7.21,0,0,1,2.29,2.82A9.16,9.16,0,0,1,208.35,166.47Zm-2.9,0a6.69,6.69,0,0,0-1.3-4.1,2.49,2.49,0,0,0-2.1-1,2.58,2.58,0,0,0-2.13,1.07,6.31,6.31,0,0,0-1.25,4v3.16a6.61,6.61,0,0,0,1.32,4.11,2.48,2.48,0,0,0,2.09,1,2.57,2.57,0,0,0,2.12-1.07,6.32,6.32,0,0,0,1.25-4Z"/><path class="cls-2" d="M156.54,216.87V220a9.94,9.94,0,0,1-1.62,5.38,5.2,5.2,0,0,1-4.65,2.57,5.36,5.36,0,0,1-2.94-.76,7.39,7.39,0,0,1-2.28-2.83A9.37,9.37,0,0,1,144,220v-3.16a10,10,0,0,1,1.61-5.38,5.17,5.17,0,0,1,4.64-2.58,5.43,5.43,0,0,1,2.93.76,7.37,7.37,0,0,1,2.29,2.82A9.17,9.17,0,0,1,156.54,216.87Zm-2.89,0a6.7,6.7,0,0,0-1.31-4.11,2.52,2.52,0,0,0-2.1-1,2.58,2.58,0,0,0-2.13,1.07,6.38,6.38,0,0,0-1.25,4V220a6.6,6.6,0,0,0,1.32,4.1,2.45,2.45,0,0,0,2.09,1,2.57,2.57,0,0,0,2.12-1.07,6.29,6.29,0,0,0,1.26-4Z"/><path class="cls-2" d="M169,208.91v15.77h2.91a2.17,2.17,0,0,1,1.48.4,1.34,1.34,0,0,1,.44,1,1.31,1.31,0,0,1-.44,1,2.17,2.17,0,0,1-1.48.4h-8.7a2.17,2.17,0,0,1-1.48-.4,1.34,1.34,0,0,1-.44-1,1.31,1.31,0,0,1,.44-1,2.17,2.17,0,0,1,1.48-.4h2.91v-12l-2.57.68a4,4,0,0,1-.93.17,1.27,1.27,0,0,1-1-.44,1.5,1.5,0,0,1-.4-1.07,1.29,1.29,0,0,1,.3-.9,2.62,2.62,0,0,1,1.23-.59Z"/><path class="cls-2" d="M186.26,208.91v15.77h2.91a2.17,2.17,0,0,1,1.48.4,1.34,1.34,0,0,1,.44,1,1.31,1.31,0,0,1-.44,1,2.17,2.17,0,0,1-1.48.4h-8.7a2.17,2.17,0,0,1-1.48-.4,1.34,1.34,0,0,1-.44-1,1.31,1.31,0,0,1,.44-1,2.17,2.17,0,0,1,1.48-.4h2.91v-12l-2.57.68a4,4,0,0,1-.93.17,1.27,1.27,0,0,1-.95-.44,1.5,1.5,0,0,1-.4-1.07,1.29,1.29,0,0,1,.3-.9,2.62,2.62,0,0,1,1.23-.59Z"/><path class="cls-2" d="M208.35,216.87V220a9.94,9.94,0,0,1-1.62,5.38,5.2,5.2,0,0,1-4.65,2.57,5.36,5.36,0,0,1-2.94-.76,7.39,7.39,0,0,1-2.28-2.83,9.25,9.25,0,0,1-1.07-4.36v-3.16a10,10,0,0,1,1.61-5.38,5.17,5.17,0,0,1,4.64-2.58,5.43,5.43,0,0,1,2.93.76,7.37,7.37,0,0,1,2.29,2.82A9.17,9.17,0,0,1,208.35,216.87Zm-2.9,0a6.69,6.69,0,0,0-1.3-4.11,2.52,2.52,0,0,0-2.1-1,2.58,2.58,0,0,0-2.13,1.07,6.32,6.32,0,0,0-1.25,4V220a6.6,6.6,0,0,0,1.32,4.1,2.45,2.45,0,0,0,2.09,1A2.57,2.57,0,0,0,204.2,224a6.29,6.29,0,0,0,1.25-4Z"/><path class="cls-2" d="M156.54,191.81V195a9.94,9.94,0,0,1-1.62,5.38,5.2,5.2,0,0,1-4.65,2.57,5.36,5.36,0,0,1-2.94-.76,7.39,7.39,0,0,1-2.28-2.83A9.37,9.37,0,0,1,144,195v-3.16a10,10,0,0,1,1.61-5.38,5.17,5.17,0,0,1,4.64-2.58,5.43,5.43,0,0,1,2.93.76,7.37,7.37,0,0,1,2.29,2.82A9.17,9.17,0,0,1,156.54,191.81Zm-2.89,0a6.7,6.7,0,0,0-1.31-4.11,2.52,2.52,0,0,0-2.1-1,2.58,2.58,0,0,0-2.13,1.07,6.38,6.38,0,0,0-1.25,4V195a6.6,6.6,0,0,0,1.32,4.1,2.45,2.45,0,0,0,2.09,1,2.57,2.57,0,0,0,2.12-1.07,6.29,6.29,0,0,0,1.26-4Z"/><path class="cls-2" d="M169,183.85v15.77h2.91a2.17,2.17,0,0,1,1.48.4,1.34,1.34,0,0,1,.44,1,1.31,1.31,0,0,1-.44,1,2.17,2.17,0,0,1-1.48.4h-8.7a2.17,2.17,0,0,1-1.48-.4,1.34,1.34,0,0,1-.44-1,1.31,1.31,0,0,1,.44-1,2.17,2.17,0,0,1,1.48-.4h2.91v-12l-2.57.68a4,4,0,0,1-.93.17,1.27,1.27,0,0,1-1-.44,1.5,1.5,0,0,1-.4-1.07,1.29,1.29,0,0,1,.3-.9,2.62,2.62,0,0,1,1.23-.59Z"/><path class="cls-2" d="M191.08,191.81V195a9.94,9.94,0,0,1-1.62,5.38,5.2,5.2,0,0,1-4.65,2.57,5.36,5.36,0,0,1-2.94-.76,7.39,7.39,0,0,1-2.28-2.83,9.37,9.37,0,0,1-1.07-4.36v-3.16a10,10,0,0,1,1.61-5.38,5.17,5.17,0,0,1,4.64-2.58,5.43,5.43,0,0,1,2.93.76,7.37,7.37,0,0,1,2.29,2.82A9.17,9.17,0,0,1,191.08,191.81Zm-2.89,0a6.7,6.7,0,0,0-1.31-4.11,2.52,2.52,0,0,0-2.1-1,2.58,2.58,0,0,0-2.13,1.07,6.38,6.38,0,0,0-1.25,4V195a6.6,6.6,0,0,0,1.32,4.1,2.45,2.45,0,0,0,2.09,1,2.57,2.57,0,0,0,2.12-1.07,6.29,6.29,0,0,0,1.26-4Z"/><path class="cls-2" d="M208.35,191.81V195a9.94,9.94,0,0,1-1.62,5.38,5.2,5.2,0,0,1-4.65,2.57,5.36,5.36,0,0,1-2.94-.76,7.39,7.39,0,0,1-2.28-2.83,9.25,9.25,0,0,1-1.07-4.36v-3.16a10,10,0,0,1,1.61-5.38,5.17,5.17,0,0,1,4.64-2.58,5.43,5.43,0,0,1,2.93.76,7.37,7.37,0,0,1,2.29,2.82A9.17,9.17,0,0,1,208.35,191.81Zm-2.9,0a6.69,6.69,0,0,0-1.3-4.11,2.52,2.52,0,0,0-2.1-1,2.58,2.58,0,0,0-2.13,1.07,6.32,6.32,0,0,0-1.25,4V195a6.6,6.6,0,0,0,1.32,4.1,2.45,2.45,0,0,0,2.09,1A2.57,2.57,0,0,0,204.2,199a6.29,6.29,0,0,0,1.25-4Z"/></g><path class="cls-3" d="M190,379.39s2.79,46.75,2.78,49.05,2.2,55.49,2.2,55.49H176.27"/><polyline class="cls-3" points="232.71 379.39 229.71 431.66 227.72 483.93 245.34 483.93"/><rect class="cls-4" x="122.79" y="253.74" width="171.26" height="38.29" rx="12"/><ellipse class="cls-5" cx="209.98" cy="382.19" rx="63.04" ry="27.19"/><ellipse class="cls-6" cx="209.34" cy="147.14" rx="75.26" ry="29.88"/><path class="cls-7" d="M134.08,147.14c0,16.5,33.69,29.87,75.26,29.87s75.26-13.37,75.26-29.87c0,0,.44,216.62,0,221.29-1.55,16.43-33.7,29.88-75.26,29.88s-75.26-13.37-75.26-29.88Z"/><path class="cls-8" d="M146.94,366.26V163.82a63.36,63.36,0,0,0,7.91,3.89V389a63.36,63.36,0,0,1-7.91-3.89Z"/><path class="cls-8" d="M181.72,352.05V174.87c-2.72-.43-5.36-.91-7.91-1.46v221.3c2.55.55,5.19,1,7.91,1.46Z"/><path class="cls-8" d="M216.32,394.15V177q-3.45.13-7,.13h-.93v221.3h.93q3.54,0,7-.13Z"/><polygon class="cls-8" points="237.33 396.16 237.33 174.9 245.24 173.42 245.24 394.64 237.33 396.16"/><path class="cls-8" d="M265.11,369.67v18.52c2.37-1.13,6.33-3.29,7.91-4.29V163.15a86.12,86.12,0,0,1-7.91,4"/><path class="cls-4" d="M131.44,313.91v55c0,16.51,35.19,29.88,78.59,29.88s77-13.45,78.59-29.88c.15-1.53.2-25.89.2-57.93l-.2-37.78c0,16.51-35.19,29.88-78.59,29.88s-78.59-13.37-78.59-29.88Z"/><path class="cls-9" d="M154,198.09a3.56,3.56,0,0,1-1.19-.21,3.47,3.47,0,0,1-2.07-4.45c3-8.21,12.82-16.42,25.92-16.42h.42A3.47,3.47,0,1,1,177,184h-.34c-11,0-17.71,7.23-19.39,11.84A3.47,3.47,0,0,1,154,198.09Z"/><path class="cls-9" d="M265.09,198.09a3.47,3.47,0,0,1-3.26-2.29c-1.7-4.66-8.55-12-19.73-11.84A3.47,3.47,0,1,1,242,177h.42c13.1,0,22.94,8.21,25.92,16.42a3.47,3.47,0,0,1-2.07,4.45A3.56,3.56,0,0,1,265.09,198.09Z"/><path class="cls-10" d="M170.72,254c0,.23,0,.45,0,.67,0,17.4,17.84,31.51,39.86,31.51s39.86-14.11,39.86-31.51c0-.22,0-.44,0-.67Z"/><path class="cls-11" d="M170.63,253.79c0,.23,0,.61,0,.83A25.69,25.69,0,0,0,173,265.38h75.14a25.69,25.69,0,0,0,2.38-10.76c0-.22,0-.6,0-.83Z"/><path class="cls-12" d="M210.56,286.14a46.63,46.63,0,0,0,24.92-6.93,30.84,30.84,0,0,0-4.75-3.93c-8.13-5.46-17.44-6.37-22.91-2.78-7.78-2.71-15.37-1.55-18.76,3.5a10.07,10.07,0,0,0-1.6,4.3A47.17,47.17,0,0,0,210.56,286.14Z"/><circle class="cls-11" cx="179.72" cy="219.57" r="20.04"/><path class="cls-10" d="M186.91,219.57a7.19,7.19,0,1,1-7.19-7.18A7.19,7.19,0,0,1,186.91,219.57Z"/><circle class="cls-11" cx="237.48" cy="219.57" r="20.04"/><path class="cls-10" d="M244.67,219.57a7.19,7.19,0,1,1-7.19-7.18A7.19,7.19,0,0,1,244.67,219.57Z"/><g id="mask"><circle class="cls-13" cx="238.51" cy="219.34" r="24.42" transform="translate(-32.05 41.04) rotate(-9.22)"/><circle class="cls-14" cx="179.38" cy="219.34" r="24.42" transform="translate(-77.25 339.47) rotate(-75.81)"/><polygon class="cls-15" points="153.96 219.78 134.08 210.47 134.08 206.2 155.33 216.85 153.96 219.78"/><polygon class="cls-15" points="263.84 219.78 284.79 210.45 284.79 206.9 262.47 216.85 263.84 219.78"/><path class="cls-15" d="M153.33,219.56a26.06,26.06,0,0,0,51.77,4.26l.12-.75h7.53l.13.75a26.09,26.09,0,1,0-.33-5.13l0,.87h-7.06l0-.87a26.06,26.06,0,0,0-52.1.87Zm69.31-15.94a22.54,22.54,0,1,1,31.88,31.88h0a22.54,22.54,0,0,1-31.88-31.88ZM179.38,197a22.54,22.54,0,0,1,16,38.48h0a22.55,22.55,0,1,1-16-38.48Z"/><path class="cls-16" d="M221.19,208.66c3.54-5.35,7.14-6.81,7.14-6.81l2.79,2.11a22.22,22.22,0,0,0-5.74,6.29,19.32,19.32,0,0,0-2.61,7l-4.6-.9A17.83,17.83,0,0,1,221.19,208.66Z"/><path class="cls-17" d="M162.08,208.66c3.54-5.35,7-6.81,7-6.81L172,204a22.38,22.38,0,0,0-5.74,6.29,19.32,19.32,0,0,0-2.61,7l-4.59-.9A17.83,17.83,0,0,1,162.08,208.66Z"/></g><path class="cls-3" d="M135.07,299h0s-29.53,20.56-23.4,34.21"/><path class="cls-18" d="M69.6,352.56l0,.07h0l0-.07m-.08-.78a1.58,1.58,0,0,0,0,.37,2.32,2.32,0,0,1,0-.37"/><path class="cls-19" d="M17.41,299.52c-.89-1.33-1.43-4.14,3.79-5.29C26.93,293,18.07,300.5,17.41,299.52Z"/><polyline class="cls-20" points="133.18 334.02 169.77 322.71 66.28 344.34 133.18 334.02"/><rect class="cls-19" x="130.02" y="328.09" width="42.71" height="4.27" rx="1.6" transform="translate(-85.48 54.79) rotate(-16.07)"/><path class="cls-21" d="M131,336.72v0a1.74,1.74,0,0,0,2.25.92l37.38-10.77a1.73,1.73,0,0,0,1.42-2v0Z"/><polyline class="cls-22" points="133.9 329.72 134.49 330.59 134.71 330.92 169.77 322.71 133.9 329.72"/><path class="cls-23" d="M135.4,332s2,3.29-2.46,5.68C129.25,339.65,132.54,332.78,135.4,332Z"/><path class="cls-19" d="M133.34,336,57.77,352.25a2.89,2.89,0,0,1-3-1.2L19.41,298.67a2.89,2.89,0,0,1,1.79-4.44l75.56-16.29a2.88,2.88,0,0,1,3,1.21l35.36,52.38a2.88,2.88,0,0,1-1.78,4.43"/><path class="cls-24" d="M132.12,338,56.56,354.27a2.87,2.87,0,0,1-3-1.2L17.48,299.63a2,2,0,0,1,1.25-3.11L95.54,280a2.88,2.88,0,0,1,3,1.21l35.36,52.38a2.88,2.88,0,0,1-1.78,4.43"/><polyline class="cls-25" points="111.46 300.3 113.07 302.69 111.46 300.3"/><polyline class="cls-26" points="97.5 345.44 97.5 345.44 97.53 345.44 97.53 345.44 97.5 345.44"/><polygon class="cls-19" points="72.69 312.77 72.49 316.59 73.62 316.83 73.7 315.42 77.61 319.59 77.81 315.79 76.64 315.52 76.57 316.91 72.69 312.77"/><path class="cls-19" d="M79.63,312.18a9.65,9.65,0,0,0-2.53-1.46,9.5,9.5,0,0,0-2.82-.67,7.85,7.85,0,0,0-2.76.25,5.57,5.57,0,0,0-2.19,1.18,4.28,4.28,0,0,0-1.23,1.83,4.56,4.56,0,0,0-.2,2.24,6.22,6.22,0,0,0,.94,2.42,8.21,8.21,0,0,0,1.93,2.12,9.65,9.65,0,0,0,2.53,1.46,9.5,9.5,0,0,0,2.82.67,7.85,7.85,0,0,0,2.76-.25,5.56,5.56,0,0,0,2.19-1.17A4.37,4.37,0,0,0,82.3,319a4.56,4.56,0,0,0,.2-2.24,6.22,6.22,0,0,0-.94-2.42A8.21,8.21,0,0,0,79.63,312.18Zm-1.33,9L74.4,317l0,.55L71.65,317l.33-5.84,3.92,4.17,0-.55,2.63.57Z"/><line class="cls-3" x1="96.71" y1="345.02" x2="83.9" y2="347.54"/><line class="cls-3" x1="90.67" y1="345.59" x2="88.21" y2="341.91"/><line class="cls-3" x1="83.9" y1="347.54" x2="81.44" y2="343.86"/><line class="cls-3" x1="97.35" y1="344.79" x2="94.89" y2="341.11"/><path class="cls-3" d="M325.09,340.78h0s-25.37,1.83-32.21-11.48c-10.13-19.68-10.13-30.17-10.13-30.17"/><line class="cls-3" x1="329.75" y1="342.5" x2="321.36" y2="342.67"/><line class="cls-3" x1="329.96" y1="336.5" x2="321.56" y2="336.66"/><line class="cls-3" x1="320.82" y1="326.3" x2="320.22" y2="346.04"/><line class="cls-3" x1="329.75" y1="346.12" x2="321.36" y2="346.28"/><path class="cls-27" d="M264.48,167.5c-1.8-37.39-105.82-35.92-109.15.54C182.6,180.25,237.41,179.81,264.48,167.5Z"/><g id="layer1"><g id="g1894"><path id="path8615" class="cls-28" d="M211.23,318.07c-17.2,0-16.12,7.45-16.12,7.45l0,7.73h16.4v2.32H188.61s-11-1.25-11,16.1,9.6,16.73,9.6,16.73h5.73v-8s-.31-9.6,9.45-9.6h16.27s9.15.15,9.15-8.84V327.06S229.19,318.07,211.23,318.07Zm-9,5.19a3,3,0,1,1-3,2.95A2.95,2.95,0,0,1,202.18,323.26Z"/><path id="path8620" class="cls-11" d="M211.71,385.45c17.2,0,16.12-7.46,16.12-7.46v-7.73H211.41v-2.32h22.92s11,1.25,11-16.1-9.61-16.73-9.61-16.73H230v8.05s.31,9.6-9.45,9.6H204.28s-9.15-.14-9.15,8.84v14.86S193.75,385.45,211.71,385.45Zm9-5.2a2.95,2.95,0,1,1,3-2.95A2.95,2.95,0,0,1,220.76,380.25Z"/></g></g></svg>